<?xml version="1.0" encoding="UTF-8" standalone="no"?>
<!DOCTYPE svg PUBLIC "-//W3C//DTD SVG 1.1//EN" "http://www.w3.org/Graphics/SVG/1.1/DTD/svg11.dtd">
<svg width="100%" height="100%" viewBox="0 0 824 825" version="1.1" xmlns="http://www.w3.org/2000/svg" xmlns:xlink="http://www.w3.org/1999/xlink" xml:space="preserve" xmlns:serif="http://www.serif.com/" style="fill-rule:evenodd;clip-rule:evenodd;stroke-linecap:round;stroke-linejoin:round;stroke-miterlimit:1.5;">
    <g transform="matrix(1,0,0,1,-537.92,-277.264)">
        <g transform="matrix(1,0,0,1,7.26181,-42.4539)">
            <path d="M1352.49,527.297L1352.49,937.173C1352.49,1050.28 1260.66,1142.11 1147.56,1142.11L737.68,1142.11C624.571,1142.11 532.742,1050.28 532.742,937.173L532.742,527.297C532.742,414.189 624.571,322.359 737.68,322.359L1147.56,322.359C1260.66,322.359 1352.49,414.189 1352.49,527.297Z" style="fill:white;stroke:black;stroke-width:4.17px;"/>
        </g>
        <g transform="matrix(1,0,0,1,7.26181,-43.0125)">
            <path d="M540.283,472.065C564.418,385.749 643.705,322.359 737.68,322.359L1147.56,322.359C1241.53,322.359 1320.82,385.749 1344.95,472.065L540.283,472.065Z" style="stroke:black;stroke-width:4.17px;"/>
        </g>
        <g transform="matrix(-1,1.22465e-16,-1.22465e-16,-1,1892.5,1420.62)">
            <path d="M540.283,472.065C564.418,385.749 643.705,322.359 737.68,322.359L1147.56,322.359C1241.53,322.359 1320.82,385.749 1344.95,472.065L540.283,472.065Z" style="stroke:black;stroke-width:4.17px;"/>
        </g>
        <g>
            <g transform="matrix(1,0,0,1,0.558595,0)">
                <g transform="matrix(0.352789,0,0,0.652318,526.645,217.333)">
                    <rect x="632.053" y="624.849" width="1130.89" height="442.968" style="fill:none;stroke:black;stroke-width:15.89px;stroke-linecap:square;stroke-miterlimit:2;"/>
                </g>
                <g transform="matrix(1,0,0,1,280.368,-84.9887)">
                    <g transform="matrix(0.0505837,0,0,0.652318,380.064,302.322)">
                        <rect x="632.053" y="624.849" width="1130.89" height="442.968" style="fill:none;stroke:black;stroke-width:18.01px;stroke-linecap:square;stroke-miterlimit:2;"/>
                    </g>
                    <g transform="matrix(1,0,0,1,-10.1747,-8.20816)">
                        <circle cx="450.813" cy="741.41" r="11.543" style="fill:none;stroke:black;stroke-width:8.33px;stroke-linecap:square;stroke-miterlimit:2;"/>
                    </g>
                    <g transform="matrix(1,0,0,1,-10.1747,234.275)">
                        <circle cx="450.813" cy="741.41" r="11.543" style="fill:none;stroke:black;stroke-width:8.33px;stroke-linecap:square;stroke-miterlimit:2;"/>
                    </g>
                    <g transform="matrix(1,0,0,1,-1.36802,0)">
                        <rect x="429.523" y="754.492" width="24.966" height="199.219" style="fill:none;stroke:black;stroke-width:8.33px;stroke-linecap:square;stroke-miterlimit:2;"/>
                    </g>
                </g>
                <g transform="matrix(1,0,0,1,736.996,-84.9887)">
                    <g transform="matrix(0.0505837,0,0,0.652318,380.064,302.322)">
                        <rect x="632.053" y="624.849" width="1130.89" height="442.968" style="fill:none;stroke:black;stroke-width:18.01px;stroke-linecap:square;stroke-miterlimit:2;"/>
                    </g>
                    <g transform="matrix(1,0,0,1,-10.1747,-8.20816)">
                        <circle cx="450.813" cy="741.41" r="11.543" style="fill:none;stroke:black;stroke-width:8.33px;stroke-linecap:square;stroke-miterlimit:2;"/>
                    </g>
                    <g transform="matrix(1,0,0,1,-10.1747,234.275)">
                        <circle cx="450.813" cy="741.41" r="11.543" style="fill:none;stroke:black;stroke-width:8.33px;stroke-linecap:square;stroke-miterlimit:2;"/>
                    </g>
                    <g transform="matrix(1,0,0,1,-1.36802,0)">
                        <rect x="429.523" y="754.492" width="24.966" height="199.219" style="fill:none;stroke:black;stroke-width:8.33px;stroke-linecap:square;stroke-miterlimit:2;"/>
                    </g>
                </g>
                <g transform="matrix(1,0,0,1,179.172,-98.3142)">
                    <rect x="722.667" y="775.946" width="94.963" height="235.731" style="fill:none;stroke:black;stroke-width:8.33px;stroke-linecap:square;stroke-miterlimit:2;"/>
                </g>
            </g>
            <g transform="matrix(1.98929,0,0,0.715859,-941.091,197.858)">
                <path d="M950.577,342.469L1106.99,596.075L794.168,596.075L950.577,342.469Z" style="fill:none;stroke:black;stroke-width:5.57px;stroke-linecap:square;stroke-miterlimit:2;"/>
            </g>
        </g>
        <g transform="matrix(1,0,0,1,-3.77063,14.4339)">
            <g transform="matrix(150,0,0,150,1138.37,395.431)">
            </g>
            <text x="768.925px" y="395.431px" style="font-family:'FiraSans-Bold', 'Fira Sans', sans-serif;font-weight:700;font-size:150px;fill:white;">HA<tspan x="955.825px 1052.58px " y="395.431px 395.431px ">US</tspan></text>
        </g>
        <g transform="matrix(1,0,0,1,-3.77063,682.055)">
            <g transform="matrix(150,0,0,150,1134.02,395.431)">
            </g>
            <text x="773.275px" y="395.431px" style="font-family:'FiraSans-Bold', 'Fira Sans', sans-serif;font-weight:700;font-size:150px;fill:white;">RA<tspan x="952.825px " y="395.431px ">C</tspan>K</text>
        </g>
    </g>
</svg>
